<?xml version="1.0" encoding="UTF-8"?><svg id="a" xmlns="http://www.w3.org/2000/svg" viewBox="0 0 100 100"><path d="M74.91,53.51H28.81c-1.71,0-3.4,.27-4.96,1.02-3.4,1.69-5.47,4.38-6.09,8.14-.11,.76-.13,1.53-.13,2.29v20.67c-.22,.02-.4,.04-.58,.04-2.18,0-4.33-.02-6.51,0-1.78,.02-3.47-1.31-3.56-3.49V33.19c0-.49,.13-.8,.56-1.09,7.27-5.2,14.52-10.43,21.79-15.65,3.71-2.69,7.42-5.36,11.14-8.02,.16-.11,.31-.22,.51-.36,.16,.09,.31,.2,.44,.29,9.69,6.98,19.38,13.94,29.08,20.92,1.33,.96,2.67,1.93,4.02,2.89,.31,.22,.44,.44,.44,.82v19.87l-.04,.64h0Z" style="fill:#e0e0e0;"/><path d="M92.83,64.64c0-.27,0-.53-.02-.8-.16-2.16-1.09-3.91-2.8-5.25-1.36-1.07-2.93-1.44-4.62-1.44H28.81c-.27,0-.53,0-.8,.02-2.16,.18-3.91,1.09-5.25,2.8-1,1.31-1.44,2.82-1.44,4.47v28.59c.18,2.93,1.58,5.09,4.27,6.36,1,.47,2.09,.6,3.2,.6h54.4c.91,0,1.8,.02,2.69,0,2.87-.13,4.96-1.49,6.27-4.05,.56-1.09,.69-2.25,.69-3.45v-27.85h0Zm-55.4,27.83c0,.47-.02,.93-.16,1.38-.38,1.47-1.67,2.53-3.2,2.62-1,.07-1.98,.02-2.96,.02h-2.8c-1.8,0-3.56-1.53-3.53-3.71v-28.32c0-.73,.13-1.42,.53-2.07,.69-1.11,1.71-1.73,3.02-1.76,1.8-.02,3.6,.02,5.38-.02,1.69-.02,3.6,1.2,3.71,3.62v28.23h0Zm16.09-13.92v14c0,.44-.02,.89-.13,1.33-.38,1.44-1.67,2.49-3.16,2.6-.93,.07-1.87,.04-2.8,.04-1.07,0-2.11,.04-3.18-.04-1.49-.09-2.51-.89-3.07-2.27-.13-.33-.2-.73-.24-1.09-.04-.31-.02-.64-.02-.98v-27.41c0-.87,.09-1.69,.58-2.42,.69-1.07,1.67-1.65,2.91-1.67,1.91-.04,3.8-.04,5.71,0,1.85,.02,3.36,1.58,3.42,3.42,.02,.89,0,1.8,0,2.69-.02,3.91-.02,7.85-.02,11.78h0Zm14.96,16.98c-.6,.58-1.33,.93-2.18,.96-1.96,.02-3.91,.07-5.87,0-1.98-.07-3.4-1.65-3.42-3.65s0-4.02,0-6.02v-22.3c0-.64,.09-1.24,.38-1.82,.67-1.29,1.73-2,3.18-2.02,1.82-.02,3.67-.02,5.49,0,1.96,.02,3.47,1.49,3.58,3.45v28.52c.02,1.11-.31,2.11-1.16,2.89h0Z" style="fill:#e0e0e0;"/><path d="M82.01,29.54c-.53,.82-1.02,1.6-1.51,2.38-.2-.13-.38-.24-.53-.36-12.27-8.83-24.52-17.65-36.81-26.48-.47-.33-.96-.62-1.53-.73-.96-.18-1.82,.02-2.6,.58-.84,.6-1.69,1.2-2.53,1.82-6.65,4.8-13.32,9.58-19.98,14.36-4.8,3.47-9.6,6.91-14.4,10.38-.16,.11-.31,.22-.47,.33-.31-.24-1.22-1.53-1.62-2.31C13.63,19.7,27.28,9.85,40.97,0c13.67,9.85,27.32,19.67,41.04,29.54h0Z" style="fill:#e0e0e0;"/><path d="M96.54,87.5v-17.74c.11-.02,.24-.07,.36-.07,.56,0,1.11-.02,1.67,.07,.82,.11,1.36,.76,1.42,1.6,.02,.16,0,.31,0,.49v14.05c-.09,.91-.8,1.6-1.71,1.6-.56,.02-1.11,0-1.73,0h0Z" style="fill:#e0e0e0;"/><path d="M15.92,13.4V4.58c.09-.64,.42-1,1.09-1.04,.29-.02,.58-.02,.87-.02h3.51c.18,0,.36,0,.53,.02,.69,.07,1.04,.42,1.07,1.09,.02,.49,0,1,0,1.51v1.93c0,.2-.04,.38-.22,.51-2.2,1.58-4.42,3.18-6.65,4.76-.02,.02-.07,.02-.2,.07h0Z" style="fill:#e0e0e0;"/></svg>